<svg xmlns="http://www.w3.org/2000/svg" xmlns:xlink="http://www.w3.org/1999/xlink" width="500" zoomAndPan="magnify" viewBox="0 0 375 374.999991" height="500" preserveAspectRatio="xMidYMid meet" version="1.0"><defs><g/><clipPath id="87830808d0"><path d="M 144 95.101562 L 230.960938 95.101562 L 230.960938 203.101562 L 144 203.101562 Z M 144 95.101562 " clip-rule="nonzero"/></clipPath><clipPath id="f4f683de1f"><path d="M 112.5 74.273438 L 262.5 74.273438 L 262.5 224.273438 L 112.5 224.273438 Z M 112.5 74.273438 " clip-rule="nonzero"/></clipPath><clipPath id="73f0a6ae95"><path d="M 112.5 105 L 262.5 105 L 262.5 138 L 112.5 138 Z M 112.5 105 " clip-rule="nonzero"/></clipPath><clipPath id="51ada4f3e4"><path d="M 128 125 L 181 125 L 181 138.234375 L 128 138.234375 Z M 128 125 " clip-rule="nonzero"/></clipPath><clipPath id="d4e6fdaaa5"><path d="M 185 87.234375 L 206 87.234375 L 206 107 L 185 107 Z M 185 87.234375 " clip-rule="nonzero"/></clipPath><clipPath id="0b081917e3"><rect x="0" width="293" y="0" height="51"/></clipPath></defs><g clip-path="url(#87830808d0)"><path fill="#000000" d="M 217.195312 150.90625 L 217.195312 150.234375 C 217.195312 143.414062 209.417969 137.882812 200.351562 137.882812 L 174.148438 137.882812 C 165.082031 137.882812 158.433594 143.414062 158.433594 150.234375 L 158.433594 150.90625 Z M 220.910156 198.535156 L 228.429688 198.535156 C 229.675781 198.535156 230.6875 199.542969 230.6875 200.789062 C 230.6875 202.035156 229.675781 203.042969 228.429688 203.042969 L 146.746094 203.042969 C 145.5 203.042969 144.488281 202.035156 144.488281 200.789062 C 144.488281 199.542969 145.5 198.535156 146.746094 198.535156 L 154.53125 198.535156 C 152.332031 197.492188 150.691406 195.429688 150.269531 192.902344 L 144.582031 158.984375 C 143.949219 155.207031 146.507812 151.632812 150.292969 151 C 150.671875 150.9375 151.054688 150.90625 151.441406 150.90625 L 155.046875 150.90625 L 155.046875 150.234375 C 155.046875 141.257812 163.488281 134.503906 174.148438 134.503906 L 176.207031 134.503906 C 170.277344 130.707031 166.347656 124.082031 166.347656 116.542969 C 166.347656 104.75 175.960938 95.195312 187.816406 95.195312 C 199.667969 95.195312 209.28125 104.75 209.28125 116.542969 C 209.28125 124.082031 205.355469 130.707031 199.421875 134.503906 L 200.351562 134.503906 C 211.179688 134.503906 220.582031 141.332031 220.582031 150.234375 L 220.582031 150.90625 L 224 150.90625 C 227.839844 150.90625 230.953125 154.011719 230.953125 157.839844 C 230.953125 158.226562 230.921875 158.609375 230.855469 158.984375 L 225.171875 192.902344 C 224.75 195.429688 223.109375 197.492188 220.910156 198.535156 Z M 187.816406 134.515625 C 197.800781 134.515625 205.898438 126.46875 205.898438 116.542969 C 205.898438 106.621094 197.800781 98.574219 187.816406 98.574219 C 177.828125 98.574219 169.734375 106.621094 169.734375 116.542969 C 169.734375 126.46875 177.828125 134.515625 187.816406 134.515625 Z M 187.585938 183.625 C 192.386719 183.625 196.277344 179.742188 196.277344 174.953125 C 196.277344 170.167969 192.386719 166.285156 187.585938 166.285156 C 182.789062 166.285156 178.898438 170.167969 178.898438 174.953125 C 178.898438 179.742188 182.789062 183.625 187.585938 183.625 Z M 187.585938 183.625 " fill-opacity="1" fill-rule="nonzero"/></g><g clip-path="url(#f4f683de1f)"><path fill="#000000" d="M 187.5 74.273438 C 146.101562 74.273438 112.5 107.878906 112.5 149.273438 C 112.5 190.671875 146.101562 224.273438 187.5 224.273438 C 228.898438 224.273438 262.5 190.671875 262.5 149.273438 C 262.5 107.878906 228.898438 74.273438 187.5 74.273438 Z M 187.5 78.441406 C 226.644531 78.441406 258.332031 110.128906 258.332031 149.273438 C 258.332031 188.417969 226.644531 220.109375 187.5 220.109375 C 148.355469 220.109375 116.667969 188.417969 116.667969 149.273438 C 116.667969 110.128906 148.355469 78.441406 187.5 78.441406 Z M 187.5 78.441406 " fill-opacity="1" fill-rule="nonzero"/></g><path fill="#262424" d="M 241.085938 103.6875 L 240.257812 105.484375 L 244.183594 107.28125 L 247.835938 105.628906 L 247.015625 103.824219 L 244.191406 105.097656 Z M 241.085938 103.6875 " fill-opacity="1" fill-rule="nonzero"/><path fill="#262424" d="M 237.15625 111.464844 L 236.335938 109.660156 L 233.503906 110.933594 L 230.402344 109.515625 L 229.574219 111.320312 L 233.496094 113.113281 Z M 237.15625 111.464844 " fill-opacity="1" fill-rule="nonzero"/><path fill="#262424" d="M 226.046875 99.132812 L 222.941406 97.714844 L 222.113281 99.519531 L 226.039062 101.3125 L 229.691406 99.664062 L 228.871094 97.851562 Z M 226.046875 99.132812 " fill-opacity="1" fill-rule="nonzero"/><g clip-path="url(#73f0a6ae95)"><path fill="#262424" d="M 220.667969 125.699219 L 219.164062 128.054688 L 214.675781 129.117188 L 210.230469 131.992188 L 206.261719 133.3125 L 202.054688 135.859375 L 202.757812 137.015625 L 206.832031 134.539062 L 210.824219 133.21875 L 215.214844 130.375 L 220.007812 129.238281 L 221.597656 126.746094 L 226.734375 124.328125 L 232.1875 121.554688 L 236.988281 123.460938 L 243.273438 128.246094 L 247.039062 128.246094 L 252.265625 132.539062 L 255.3125 132.539062 L 261.664062 137.007812 L 262.441406 135.910156 L 255.746094 131.191406 L 252.75 131.191406 L 247.527344 126.894531 L 243.726562 126.894531 L 237.667969 122.277344 L 232.464844 120.210938 L 232.230469 120.074219 L 232.214844 120.03125 L 232.1875 120.042969 L 225.839844 116.128906 L 216.5 110.554688 L 211.980469 110.554688 L 206.730469 114.792969 L 202.792969 117.382812 L 199.042969 114.40625 L 194.890625 112.796875 L 191.574219 110.554688 L 188.675781 110.554688 L 185.796875 112.105469 L 182.332031 113.671875 L 182.320312 113.671875 L 182.273438 113.605469 L 182.230469 113.640625 L 179.84375 112.96875 L 176.507812 112.308594 L 174.03125 110.621094 L 170.371094 109.367188 L 166.464844 106.621094 L 162.597656 105.414062 L 159.304688 105.414062 L 154.773438 108.503906 L 150.472656 111.558594 L 147.125 112.996094 L 142.390625 114.644531 L 138.460938 119.253906 L 129.078125 124.269531 L 124.023438 129.757812 L 119.320312 132.4375 L 112.558594 135.808594 L 113.164062 137.007812 L 119.949219 133.632812 L 124.882812 130.820312 L 129.917969 125.351562 L 139.324219 120.316406 L 143.183594 115.796875 L 147.597656 114.257812 L 151.140625 112.742188 L 155.550781 109.609375 L 159.726562 106.757812 L 162.390625 106.757812 L 165.855469 107.839844 L 169.746094 110.574219 L 173.417969 111.835938 L 175.972656 113.570312 L 179.519531 114.28125 L 180.953125 114.679688 L 178.609375 116.585938 L 174.894531 117.675781 L 169.828125 120.796875 L 170.539062 121.945312 L 175.453125 118.914062 L 179.25 117.800781 L 182.742188 114.960938 L 186.390625 113.3125 L 189.019531 111.902344 L 191.160156 111.902344 L 194.261719 113.992188 L 198.359375 115.582031 L 201.605469 118.164062 L 199.558594 119.511719 L 194.839844 120.855469 L 187.789062 123.140625 L 185.328125 125.703125 L 186.304688 126.636719 L 188.53125 124.3125 L 195.226562 122.140625 L 200.128906 120.75 L 207.515625 115.886719 L 207.527344 115.875 L 212.460938 111.902344 L 216.121094 111.902344 L 225.140625 117.28125 L 230.785156 120.761719 L 226.140625 123.121094 Z M 220.667969 125.699219 " fill-opacity="1" fill-rule="nonzero"/></g><g clip-path="url(#51ada4f3e4)"><path fill="#262424" d="M 169.660156 132.8125 L 166.480469 130.277344 L 162.054688 127.953125 L 158.117188 125.035156 L 153.078125 126.589844 L 153.046875 126.59375 L 150.347656 127.917969 L 145.460938 130.253906 L 140.054688 133.480469 L 135.441406 133.703125 L 128.765625 137.027344 L 129.371094 138.234375 L 135.789062 135.03125 L 140.457031 134.808594 L 146.105469 131.4375 L 150.941406 129.125 L 153.546875 127.851562 L 157.863281 126.523438 L 161.332031 129.09375 L 165.738281 131.40625 L 169.1875 134.15625 L 172.996094 134.15625 L 179.8125 138.234375 L 180.511719 137.082031 L 173.371094 132.8125 Z M 169.660156 132.8125 " fill-opacity="1" fill-rule="nonzero"/></g><g clip-path="url(#d4e6fdaaa5)"><path fill="#262424" d="M 195.214844 106.757812 C 200.617188 106.757812 205.015625 102.382812 205.015625 96.996094 C 205.015625 91.609375 200.621094 87.234375 195.214844 87.234375 C 189.808594 87.234375 185.417969 91.609375 185.417969 96.996094 C 185.417969 102.382812 189.808594 106.757812 195.214844 106.757812 Z M 195.214844 105.414062 C 190.558594 105.414062 186.769531 101.640625 186.769531 96.996094 C 186.769531 92.351562 190.554688 88.578125 195.214844 88.578125 C 199.878906 88.578125 203.664062 92.351562 203.664062 96.996094 C 203.664062 101.640625 199.878906 105.414062 195.214844 105.414062 Z M 195.214844 105.414062 " fill-opacity="1" fill-rule="nonzero"/></g><g transform="matrix(1, 0, 0, 1, 42, 227)"><g clip-path="url(#0b081917e3)"><g fill="#000000" fill-opacity="1"><g transform="translate(0.609842, 38.644269)"><g><path d="M 16.3125 -30.671875 L 9.03125 -30.671875 L 9.03125 -18.78125 L 14.03125 -18.78125 C 14.1875 -18.78125 14.570312 -18.8125 15.1875 -18.875 C 15.800781 -18.9375 16.503906 -19.097656 17.296875 -19.359375 C 18.085938 -19.617188 18.828125 -20.039062 19.515625 -20.625 L 19.515625 -13.734375 C 18.609375 -14.316406 17.722656 -14.738281 16.859375 -15 C 16.003906 -15.257812 15.3125 -15.410156 14.78125 -15.453125 C 14.25 -15.503906 13.984375 -15.53125 13.984375 -15.53125 L 9.03125 -15.53125 L 9.03125 -5.625 C 9.03125 -5.625 9.050781 -5.332031 9.09375 -4.75 C 9.144531 -4.164062 9.300781 -3.445312 9.5625 -2.59375 C 9.820312 -1.738281 10.242188 -0.921875 10.828125 -0.140625 L 0.734375 -0.140625 C 1.304688 -0.785156 1.722656 -1.515625 1.984375 -2.328125 C 2.242188 -3.140625 2.40625 -3.851562 2.46875 -4.46875 C 2.539062 -5.082031 2.578125 -5.453125 2.578125 -5.578125 L 2.578125 -28.4375 C 2.578125 -28.601562 2.539062 -28.992188 2.46875 -29.609375 C 2.40625 -30.222656 2.242188 -30.925781 1.984375 -31.71875 C 1.722656 -32.507812 1.304688 -33.242188 0.734375 -33.921875 L 23.734375 -33.921875 L 21.25 -27.65625 L 18.296875 -30 C 17.710938 -30.414062 17.050781 -30.640625 16.3125 -30.671875 Z M 16.3125 -30.671875 "/></g></g></g><g fill="#000000" fill-opacity="1"><g transform="translate(24.052012, 38.644269)"><g><path d="M 16.203125 -17.125 C 16.566406 -16.507812 17.101562 -15.617188 17.8125 -14.453125 C 18.519531 -13.296875 19.328125 -12.015625 20.234375 -10.609375 C 21.140625 -9.203125 22.09375 -7.800781 23.09375 -6.40625 C 24.101562 -5.007812 25.097656 -3.753906 26.078125 -2.640625 C 27.066406 -1.523438 27.96875 -0.691406 28.78125 -0.140625 C 28.78125 -0.140625 28.34375 -0.078125 27.46875 0.046875 C 26.59375 0.179688 25.609375 0.25 24.515625 0.25 C 23.765625 0.25 23.039062 0.191406 22.34375 0.078125 C 21.65625 -0.0351562 21.082031 -0.222656 20.625 -0.484375 C 20.269531 -0.710938 19.785156 -1.207031 19.171875 -1.96875 C 18.554688 -2.726562 17.859375 -3.65625 17.078125 -4.75 C 16.304688 -5.851562 15.503906 -7.023438 14.671875 -8.265625 C 13.847656 -9.515625 13.054688 -10.726562 12.296875 -11.90625 C 11.535156 -13.09375 10.863281 -14.140625 10.28125 -15.046875 C 9.707031 -15.953125 9.289062 -16.613281 9.03125 -17.03125 L 9.03125 -5.625 C 9.03125 -5.625 9.050781 -5.332031 9.09375 -4.75 C 9.144531 -4.164062 9.300781 -3.445312 9.5625 -2.59375 C 9.820312 -1.738281 10.242188 -0.921875 10.828125 -0.140625 L 0.734375 -0.140625 C 1.304688 -0.828125 1.722656 -1.566406 1.984375 -2.359375 C 2.242188 -3.148438 2.40625 -3.851562 2.46875 -4.46875 C 2.539062 -5.082031 2.578125 -5.453125 2.578125 -5.578125 L 2.578125 -28.4375 C 2.578125 -28.601562 2.539062 -28.992188 2.46875 -29.609375 C 2.40625 -30.222656 2.242188 -30.925781 1.984375 -31.71875 C 1.722656 -32.507812 1.304688 -33.242188 0.734375 -33.921875 L 14.75 -33.921875 C 14.75 -33.921875 15.046875 -33.894531 15.640625 -33.84375 C 16.242188 -33.800781 17 -33.671875 17.90625 -33.453125 C 18.8125 -33.242188 19.707031 -32.890625 20.59375 -32.390625 C 21.488281 -31.890625 22.242188 -31.1875 22.859375 -30.28125 C 23.472656 -29.375 23.78125 -28.210938 23.78125 -26.796875 C 23.78125 -25.046875 23.53125 -23.585938 23.03125 -22.421875 C 22.53125 -21.253906 21.878906 -20.304688 21.078125 -19.578125 C 20.285156 -18.847656 19.460938 -18.296875 18.609375 -17.921875 C 17.753906 -17.554688 16.953125 -17.289062 16.203125 -17.125 Z M 11.109375 -18.78125 C 11.109375 -18.78125 11.328125 -18.800781 11.765625 -18.84375 C 12.203125 -18.894531 12.742188 -19.023438 13.390625 -19.234375 C 14.035156 -19.453125 14.679688 -19.8125 15.328125 -20.3125 C 15.984375 -20.8125 16.523438 -21.5 16.953125 -22.375 C 17.390625 -23.25 17.609375 -24.363281 17.609375 -25.71875 C 17.609375 -26.6875 17.390625 -27.484375 16.953125 -28.109375 C 16.523438 -28.742188 15.984375 -29.234375 15.328125 -29.578125 C 14.679688 -29.921875 14.035156 -30.164062 13.390625 -30.3125 C 12.742188 -30.457031 12.203125 -30.546875 11.765625 -30.578125 C 11.328125 -30.609375 11.109375 -30.625 11.109375 -30.625 L 9.03125 -30.625 L 9.03125 -18.78125 Z M 11.109375 -18.78125 "/></g></g></g><g fill="#000000" fill-opacity="1"><g transform="translate(52.250574, 38.644269)"><g><path d="M 18.296875 -4.078125 L 21.203125 -6.546875 L 23.734375 -0.140625 L 0.734375 -0.140625 C 1.304688 -0.785156 1.722656 -1.515625 1.984375 -2.328125 C 2.242188 -3.140625 2.40625 -3.851562 2.46875 -4.46875 C 2.539062 -5.082031 2.578125 -5.453125 2.578125 -5.578125 L 2.578125 -28.4375 C 2.578125 -28.601562 2.539062 -28.992188 2.46875 -29.609375 C 2.40625 -30.222656 2.242188 -30.925781 1.984375 -31.71875 C 1.722656 -32.507812 1.304688 -33.242188 0.734375 -33.921875 L 23.734375 -33.921875 L 21.25 -27.65625 L 18.296875 -30 C 17.710938 -30.414062 17.050781 -30.640625 16.3125 -30.671875 L 9.03125 -30.671875 L 9.03125 -18.78125 L 14.03125 -18.78125 C 14.1875 -18.78125 14.570312 -18.8125 15.1875 -18.875 C 15.800781 -18.9375 16.503906 -19.097656 17.296875 -19.359375 C 18.085938 -19.617188 18.828125 -20.039062 19.515625 -20.625 L 19.515625 -13.734375 C 18.609375 -14.316406 17.722656 -14.738281 16.859375 -15 C 16.003906 -15.257812 15.3125 -15.410156 14.78125 -15.453125 C 14.25 -15.503906 13.984375 -15.53125 13.984375 -15.53125 L 9.03125 -15.53125 L 9.03125 -3.390625 L 16.3125 -3.390625 C 17.050781 -3.429688 17.710938 -3.660156 18.296875 -4.078125 Z M 18.296875 -4.078125 "/></g></g></g><g fill="#000000" fill-opacity="1"><g transform="translate(76.22663, 38.644269)"><g><path d="M 18.296875 -4.078125 L 21.203125 -6.546875 L 23.734375 -0.140625 L 0.734375 -0.140625 C 1.304688 -0.785156 1.722656 -1.515625 1.984375 -2.328125 C 2.242188 -3.140625 2.40625 -3.851562 2.46875 -4.46875 C 2.539062 -5.082031 2.578125 -5.453125 2.578125 -5.578125 L 2.578125 -28.4375 C 2.578125 -28.601562 2.539062 -28.992188 2.46875 -29.609375 C 2.40625 -30.222656 2.242188 -30.925781 1.984375 -31.71875 C 1.722656 -32.507812 1.304688 -33.242188 0.734375 -33.921875 L 23.734375 -33.921875 L 21.25 -27.65625 L 18.296875 -30 C 17.710938 -30.414062 17.050781 -30.640625 16.3125 -30.671875 L 9.03125 -30.671875 L 9.03125 -18.78125 L 14.03125 -18.78125 C 14.1875 -18.78125 14.570312 -18.8125 15.1875 -18.875 C 15.800781 -18.9375 16.503906 -19.097656 17.296875 -19.359375 C 18.085938 -19.617188 18.828125 -20.039062 19.515625 -20.625 L 19.515625 -13.734375 C 18.609375 -14.316406 17.722656 -14.738281 16.859375 -15 C 16.003906 -15.257812 15.3125 -15.410156 14.78125 -15.453125 C 14.25 -15.503906 13.984375 -15.53125 13.984375 -15.53125 L 9.03125 -15.53125 L 9.03125 -3.390625 L 16.3125 -3.390625 C 17.050781 -3.429688 17.710938 -3.660156 18.296875 -4.078125 Z M 18.296875 -4.078125 "/></g></g></g><g fill="#000000" fill-opacity="1"><g transform="translate(100.202686, 38.644269)"><g><path d="M 0.734375 -0.140625 C 1.304688 -0.785156 1.722656 -1.515625 1.984375 -2.328125 C 2.242188 -3.140625 2.40625 -3.851562 2.46875 -4.46875 C 2.539062 -5.082031 2.578125 -5.453125 2.578125 -5.578125 L 2.578125 -28.4375 C 2.578125 -28.601562 2.539062 -28.992188 2.46875 -29.609375 C 2.40625 -30.222656 2.242188 -30.925781 1.984375 -31.71875 C 1.722656 -32.507812 1.304688 -33.242188 0.734375 -33.921875 L 10.34375 -33.921875 C 9.726562 -33.015625 9.296875 -32.132812 9.046875 -31.28125 C 8.804688 -30.425781 8.660156 -29.726562 8.609375 -29.1875 C 8.566406 -28.65625 8.546875 -28.390625 8.546875 -28.390625 L 8.546875 -3.390625 L 15.765625 -3.390625 C 16.515625 -3.429688 17.179688 -3.660156 17.765625 -4.078125 L 20.765625 -6.40625 L 23.203125 -0.140625 Z M 0.734375 -0.140625 "/></g></g></g><g fill="#000000" fill-opacity="1"><g transform="translate(122.965378, 38.644269)"><g><path d="M 31.546875 -0.140625 L 20.140625 -0.140625 C 21.304688 -1.398438 21.710938 -2.773438 21.359375 -4.265625 C 21.097656 -5.304688 20.804688 -6.257812 20.484375 -7.125 C 20.160156 -8 19.882812 -8.695312 19.65625 -9.21875 C 19.425781 -9.738281 19.3125 -10 19.3125 -10 L 8.78125 -10 L 7.90625 -6.9375 C 7.644531 -6.0625 7.429688 -5.285156 7.265625 -4.609375 C 7.109375 -3.929688 7.03125 -3.300781 7.03125 -2.71875 C 7.03125 -1.8125 7.320312 -0.953125 7.90625 -0.140625 L -0.625 -0.140625 C 0.375 -1.148438 1.1875 -2.140625 1.8125 -3.109375 C 2.445312 -4.078125 3.070312 -5.351562 3.6875 -6.9375 L 10.875 -28.140625 C 11.550781 -29.953125 11.890625 -31.378906 11.890625 -32.421875 C 11.890625 -33.035156 11.789062 -33.742188 11.59375 -34.546875 L 16.984375 -34.546875 L 25.625 -10.875 C 26.113281 -9.613281 26.628906 -8.296875 27.171875 -6.921875 C 27.722656 -5.546875 28.347656 -4.25 29.046875 -3.03125 C 29.742188 -1.820312 30.578125 -0.859375 31.546875 -0.140625 Z M 9.90625 -13.25 L 18.109375 -13.203125 L 13.921875 -24.265625 Z M 9.90625 -13.25 "/></g></g></g><g fill="#000000" fill-opacity="1"><g transform="translate(153.833331, 38.644269)"><g><path d="M 22.03125 -33.921875 L 29.5 -33.921875 C 28.925781 -32.921875 28.5 -31.941406 28.21875 -30.984375 C 27.945312 -30.035156 27.8125 -28.847656 27.8125 -27.421875 L 27.8125 0.53125 C 24.894531 0.59375 22.644531 -0.585938 21.0625 -3.015625 L 6.59375 -23.15625 L 6.59375 -6.9375 C 6.59375 -5.351562 6.726562 -4.078125 7 -3.109375 C 7.28125 -2.140625 7.726562 -1.148438 8.34375 -0.140625 L 0.828125 -0.140625 C 1.410156 -1.148438 1.835938 -2.140625 2.109375 -3.109375 C 2.390625 -4.078125 2.53125 -5.351562 2.53125 -6.9375 L 2.53125 -27.125 C 2.53125 -28.707031 2.390625 -29.984375 2.109375 -30.953125 C 1.835938 -31.929688 1.410156 -32.921875 0.828125 -33.921875 L 7.46875 -33.921875 L 23.734375 -10.625 L 23.734375 -27.125 C 23.734375 -28.707031 23.59375 -29.984375 23.3125 -30.953125 C 23.039062 -31.929688 22.613281 -32.921875 22.03125 -33.921875 Z M 22.03125 -33.921875 "/></g></g></g><g fill="#000000" fill-opacity="1"><g transform="translate(184.118873, 38.644269)"><g><path d="M 13.59375 -33.921875 C 13.59375 -33.921875 13.929688 -33.894531 14.609375 -33.84375 C 15.285156 -33.800781 16.164062 -33.640625 17.25 -33.359375 C 18.332031 -33.085938 19.476562 -32.644531 20.6875 -32.03125 C 21.90625 -31.414062 23.054688 -30.554688 24.140625 -29.453125 C 25.222656 -28.359375 26.101562 -26.941406 26.78125 -25.203125 C 27.46875 -23.472656 27.8125 -21.347656 27.8125 -18.828125 C 27.8125 -15.722656 27.421875 -13.09375 26.640625 -10.9375 C 25.867188 -8.789062 24.867188 -7.035156 23.640625 -5.671875 C 22.410156 -4.316406 21.097656 -3.257812 19.703125 -2.5 C 18.304688 -1.738281 16.992188 -1.1875 15.765625 -0.84375 C 14.535156 -0.507812 13.53125 -0.304688 12.75 -0.234375 C 11.976562 -0.171875 11.59375 -0.140625 11.59375 -0.140625 L 0.734375 -0.140625 C 1.304688 -0.828125 1.722656 -1.566406 1.984375 -2.359375 C 2.242188 -3.148438 2.40625 -3.851562 2.46875 -4.46875 C 2.539062 -5.082031 2.578125 -5.453125 2.578125 -5.578125 L 2.578125 -28.4375 C 2.578125 -28.601562 2.539062 -28.992188 2.46875 -29.609375 C 2.40625 -30.222656 2.242188 -30.925781 1.984375 -31.71875 C 1.722656 -32.507812 1.304688 -33.242188 0.734375 -33.921875 Z M 10.4375 -3.390625 C 10.789062 -3.390625 11.382812 -3.453125 12.21875 -3.578125 C 13.0625 -3.710938 13.984375 -4.019531 14.984375 -4.5 C 15.992188 -4.988281 16.96875 -5.742188 17.90625 -6.765625 C 18.84375 -7.785156 19.609375 -9.1875 20.203125 -10.96875 C 20.804688 -12.75 21.109375 -15 21.109375 -17.71875 C 21.109375 -20.300781 20.773438 -22.410156 20.109375 -24.046875 C 19.453125 -25.679688 18.632812 -26.953125 17.65625 -27.859375 C 16.6875 -28.765625 15.71875 -29.410156 14.75 -29.796875 C 13.78125 -30.179688 12.960938 -30.414062 12.296875 -30.5 C 11.640625 -30.582031 11.3125 -30.625 11.3125 -30.625 L 9.03125 -30.625 L 9.03125 -3.390625 Z M 10.4375 -3.390625 "/></g></g></g><g fill="#000000" fill-opacity="1"><g transform="translate(212.705708, 38.644269)"><g><path d="M 14.75 -19.953125 C 15.945312 -19.078125 17.148438 -18.203125 18.359375 -17.328125 C 19.578125 -16.453125 20.695312 -15.566406 21.71875 -14.671875 C 22.738281 -13.785156 23.546875 -12.84375 24.140625 -11.84375 C 24.742188 -10.84375 25.046875 -9.773438 25.046875 -8.640625 C 25.046875 -7.210938 24.519531 -5.796875 23.46875 -4.390625 C 22.414062 -2.984375 20.953125 -1.8125 19.078125 -0.875 C 17.203125 0.0625 15.015625 0.53125 12.515625 0.53125 C 9.640625 0.53125 7.238281 0.1875 5.3125 -0.5 C 3.382812 -1.195312 1.695312 -2.34375 0.25 -3.9375 L 5.828125 -9.859375 C 6.503906 -8.753906 7.351562 -7.695312 8.375 -6.6875 C 9.394531 -5.6875 10.597656 -4.867188 11.984375 -4.234375 C 13.378906 -3.609375 15 -3.296875 16.84375 -3.296875 C 17.84375 -3.296875 18.550781 -3.429688 18.96875 -3.703125 C 19.394531 -3.984375 19.609375 -4.367188 19.609375 -4.859375 C 19.609375 -5.566406 19.128906 -6.46875 18.171875 -7.5625 C 17.222656 -8.664062 15.992188 -9.863281 14.484375 -11.15625 C 12.984375 -12.457031 11.390625 -13.769531 9.703125 -15.09375 C 8.117188 -16.351562 6.703125 -17.53125 5.453125 -18.625 C 4.210938 -19.726562 3.234375 -20.851562 2.515625 -22 C 1.804688 -23.15625 1.453125 -24.425781 1.453125 -25.8125 C 1.453125 -27.238281 1.890625 -28.625 2.765625 -29.96875 C 3.640625 -31.3125 4.945312 -32.421875 6.6875 -33.296875 C 8.4375 -34.171875 10.640625 -34.609375 13.296875 -34.609375 C 15.953125 -34.609375 18.046875 -34.300781 19.578125 -33.6875 C 21.117188 -33.070312 22.257812 -32.4375 23 -31.78125 L 20.234375 -24.359375 C 19.171875 -25.234375 18.03125 -26.128906 16.8125 -27.046875 C 15.601562 -27.972656 14.296875 -28.75 12.890625 -29.375 C 11.484375 -30.007812 9.953125 -30.328125 8.296875 -30.328125 C 7.585938 -30.328125 7.015625 -30.226562 6.578125 -30.03125 C 6.140625 -29.84375 5.921875 -29.457031 5.921875 -28.875 C 5.921875 -28.320312 6.359375 -27.550781 7.234375 -26.5625 C 8.109375 -25.582031 9.210938 -24.5 10.546875 -23.3125 C 11.890625 -22.132812 13.289062 -21.015625 14.75 -19.953125 Z M 14.75 -19.953125 "/></g></g></g><g fill="#000000" fill-opacity="1"><g transform="translate(238.186334, 38.644269)"><g><path d="M 18.296875 -4.078125 L 21.203125 -6.546875 L 23.734375 -0.140625 L 0.734375 -0.140625 C 1.304688 -0.785156 1.722656 -1.515625 1.984375 -2.328125 C 2.242188 -3.140625 2.40625 -3.851562 2.46875 -4.46875 C 2.539062 -5.082031 2.578125 -5.453125 2.578125 -5.578125 L 2.578125 -28.4375 C 2.578125 -28.601562 2.539062 -28.992188 2.46875 -29.609375 C 2.40625 -30.222656 2.242188 -30.925781 1.984375 -31.71875 C 1.722656 -32.507812 1.304688 -33.242188 0.734375 -33.921875 L 23.734375 -33.921875 L 21.25 -27.65625 L 18.296875 -30 C 17.710938 -30.414062 17.050781 -30.640625 16.3125 -30.671875 L 9.03125 -30.671875 L 9.03125 -18.78125 L 14.03125 -18.78125 C 14.1875 -18.78125 14.570312 -18.8125 15.1875 -18.875 C 15.800781 -18.9375 16.503906 -19.097656 17.296875 -19.359375 C 18.085938 -19.617188 18.828125 -20.039062 19.515625 -20.625 L 19.515625 -13.734375 C 18.609375 -14.316406 17.722656 -14.738281 16.859375 -15 C 16.003906 -15.257812 15.3125 -15.410156 14.78125 -15.453125 C 14.25 -15.503906 13.984375 -15.53125 13.984375 -15.53125 L 9.03125 -15.53125 L 9.03125 -3.390625 L 16.3125 -3.390625 C 17.050781 -3.429688 17.710938 -3.660156 18.296875 -4.078125 Z M 18.296875 -4.078125 "/></g></g></g><g fill="#000000" fill-opacity="1"><g transform="translate(262.16239, 38.644269)"><g><path d="M 16.203125 -17.125 C 16.566406 -16.507812 17.101562 -15.617188 17.8125 -14.453125 C 18.519531 -13.296875 19.328125 -12.015625 20.234375 -10.609375 C 21.140625 -9.203125 22.09375 -7.800781 23.09375 -6.40625 C 24.101562 -5.007812 25.097656 -3.753906 26.078125 -2.640625 C 27.066406 -1.523438 27.96875 -0.691406 28.78125 -0.140625 C 28.78125 -0.140625 28.34375 -0.078125 27.46875 0.046875 C 26.59375 0.179688 25.609375 0.25 24.515625 0.25 C 23.765625 0.25 23.039062 0.191406 22.34375 0.078125 C 21.65625 -0.0351562 21.082031 -0.222656 20.625 -0.484375 C 20.269531 -0.710938 19.785156 -1.207031 19.171875 -1.96875 C 18.554688 -2.726562 17.859375 -3.65625 17.078125 -4.75 C 16.304688 -5.851562 15.503906 -7.023438 14.671875 -8.265625 C 13.847656 -9.515625 13.054688 -10.726562 12.296875 -11.90625 C 11.535156 -13.09375 10.863281 -14.140625 10.28125 -15.046875 C 9.707031 -15.953125 9.289062 -16.613281 9.03125 -17.03125 L 9.03125 -5.625 C 9.03125 -5.625 9.050781 -5.332031 9.09375 -4.75 C 9.144531 -4.164062 9.300781 -3.445312 9.5625 -2.59375 C 9.820312 -1.738281 10.242188 -0.921875 10.828125 -0.140625 L 0.734375 -0.140625 C 1.304688 -0.828125 1.722656 -1.566406 1.984375 -2.359375 C 2.242188 -3.148438 2.40625 -3.851562 2.46875 -4.46875 C 2.539062 -5.082031 2.578125 -5.453125 2.578125 -5.578125 L 2.578125 -28.4375 C 2.578125 -28.601562 2.539062 -28.992188 2.46875 -29.609375 C 2.40625 -30.222656 2.242188 -30.925781 1.984375 -31.71875 C 1.722656 -32.507812 1.304688 -33.242188 0.734375 -33.921875 L 14.75 -33.921875 C 14.75 -33.921875 15.046875 -33.894531 15.640625 -33.84375 C 16.242188 -33.800781 17 -33.671875 17.90625 -33.453125 C 18.8125 -33.242188 19.707031 -32.890625 20.59375 -32.390625 C 21.488281 -31.890625 22.242188 -31.1875 22.859375 -30.28125 C 23.472656 -29.375 23.78125 -28.210938 23.78125 -26.796875 C 23.78125 -25.046875 23.53125 -23.585938 23.03125 -22.421875 C 22.53125 -21.253906 21.878906 -20.304688 21.078125 -19.578125 C 20.285156 -18.847656 19.460938 -18.296875 18.609375 -17.921875 C 17.753906 -17.554688 16.953125 -17.289062 16.203125 -17.125 Z M 11.109375 -18.78125 C 11.109375 -18.78125 11.328125 -18.800781 11.765625 -18.84375 C 12.203125 -18.894531 12.742188 -19.023438 13.390625 -19.234375 C 14.035156 -19.453125 14.679688 -19.8125 15.328125 -20.3125 C 15.984375 -20.8125 16.523438 -21.5 16.953125 -22.375 C 17.390625 -23.25 17.609375 -24.363281 17.609375 -25.71875 C 17.609375 -26.6875 17.390625 -27.484375 16.953125 -28.109375 C 16.523438 -28.742188 15.984375 -29.234375 15.328125 -29.578125 C 14.679688 -29.921875 14.035156 -30.164062 13.390625 -30.3125 C 12.742188 -30.457031 12.203125 -30.546875 11.765625 -30.578125 C 11.328125 -30.609375 11.109375 -30.625 11.109375 -30.625 L 9.03125 -30.625 L 9.03125 -18.78125 Z M 11.109375 -18.78125 "/></g></g></g></g></g></svg>